# xmcd
#
# Track frame offsets:
#	150
#	16761
#	32406
#	49709
#	58859
#	79501
#	100481
#	114784
#	130448
#	145852
#	167842
#	190243
#	212540
#	229127
#	249780
#	262999
#	273991
#	286511
#
# Disc length: 4299 seconds
#
# Revision: 1
# Processed by: cddbd v1.5.2PL0 Copyright (c) Steve Scherf et al.
# Submitted via: audiograbber 1.83.01
#
DISCID=e910c912
DTITLE=Georg Danzer - Austro Masters Collection
DYEAR=2016
DGENRE=Pop
TTITLE0=Jö Schau
TTITLE1=Lass mi amoi no d'Sunn aufgeh' segn
TTITLE2=Träumer
TTITLE3=I bin a Kniera (Die goldene Kniescheibe)
TTITLE4=Weiße Pferde
TTITLE5=Zombieball
TTITLE6=Doppelgänger
TTITLE7=Die Moritat vom Frauenmörder Wurm
TTITLE8=Der legendäre Wixerblues (vom 7. Okt. 1976)
TTITLE9=Vorstadtcasanova
TTITLE10=Griechenland
TTITLE11=Von Scheibbs bis Nebraska
TTITLE12=Tschik
TTITLE13=Wia woa Weihnachten
TTITLE14=Nur a klana Bua im Winter
TTITLE15=Die Freiheit
TTITLE16=Ruaf mi ned au
TTITLE17=Der allte Wessely (gewidmet 140.000 Österreichern)
EXTD=
EXTT0=
EXTT1=
EXTT2=
EXTT3=
EXTT4=
EXTT5=
EXTT6=
EXTT7=
EXTT8=
EXTT9=
EXTT10=
EXTT11=
EXTT12=
EXTT13=
EXTT14=
EXTT15=
EXTT16=
EXTT17=
PLAYORDER=
